<svg width="20" height="22" viewBox="0 0 20 22" fill="none" xmlns="http://www.w3.org/2000/svg">
<path d="M1.67432 4.97363L3.55388 20.3112C3.66337 21.2145 4.42979 21.8897 5.33764 21.8897H14.6625C15.5703 21.8897 16.3367 21.2145 16.4462 20.3112L18.3258 4.97363H1.67432ZM6.83399 19.4353C6.83399 19.4353 6.80662 19.4353 6.78837 19.4353C6.51464 19.4353 6.28198 19.2255 6.25917 18.9472L5.36957 7.99827C5.34676 7.7063 5.56574 7.45082 5.85771 7.42801C6.14968 7.4052 6.40516 7.62418 6.42797 7.91615L7.31756 18.8651C7.34037 19.157 7.1214 19.4125 6.82943 19.4353H6.83399ZM10.5292 18.9061C10.5292 19.1981 10.292 19.4353 10 19.4353C9.70808 19.4353 9.47085 19.1981 9.47085 18.9061V7.95721C9.47085 7.66524 9.70808 7.42801 10 7.42801C10.292 7.42801 10.5292 7.66524 10.5292 7.95721V18.9061ZM14.6214 7.99827L13.7318 18.9472C13.709 19.2255 13.4763 19.4353 13.2026 19.4353C13.1889 19.4353 13.1752 19.4353 13.157 19.4353C12.865 19.4125 12.646 19.157 12.6688 18.8651L13.5584 7.91615C13.5813 7.62418 13.8367 7.4052 14.1287 7.42801C14.4207 7.45082 14.6396 7.7063 14.6168 7.99827H14.6214Z" fill="white"/>
<path d="M19.0283 2.47805H14.1971C13.9781 2.47805 13.7865 2.34119 13.7135 2.1359L13.3348 1.04557C13.1387 0.489002 12.614 0.110352 12.021 0.110352H7.97899C7.38593 0.110352 6.86129 0.48444 6.66512 1.04557L6.28647 2.1359C6.21348 2.34119 6.02188 2.47805 5.8029 2.47805H0.971693C0.725342 2.47805 0.529175 2.67422 0.529175 2.92057V3.77367C0.529175 4.02002 0.725342 4.21619 0.971693 4.21619H19.0283C19.2746 4.21619 19.4708 4.02002 19.4708 3.77367V2.92057C19.4708 2.67422 19.2746 2.47805 19.0283 2.47805ZM7.84213 1.46072C7.87407 1.37404 7.95618 1.31473 8.04742 1.31473H11.9525C12.0438 1.31473 12.1305 1.37404 12.1578 1.46072L12.5137 2.47805H7.48629L7.84213 1.46072Z" fill="white"/>
</svg>
